<svg width="800" height="800" viewBox="0 0 32 32" xmlns="http://www.w3.org/2000/svg"><path d="M21 20.16a2.88 2.88 0 0 1-2.7-3.03v.01-.16a2.87 2.87 0 0 1 2.68-2.86H21a2.85 2.85 0 0 1 2.7 3.03v-.01.17c0 1.52-1.19 2.77-2.7 2.85zm-9.97 0a2.88 2.88 0 0 1-2.7-3.03v.01-.16a2.87 2.87 0 0 1 2.69-2.86 2.85 2.85 0 0 1 2.7 3.03v-.01.16a2.87 2.87 0 0 1-2.69 2.86zm15.36-13.7a23.94 23.94 0 0 0-5.95-1.87l-.15-.02h-.02a.1.1 0 0 0-.08.05c-.23.4-.49.92-.72 1.45l-.04.1a22.12 22.12 0 0 0-6.98.02l.13-.01c-.27-.63-.53-1.15-.82-1.64l.04.08a.1.1 0 0 0-.08-.05h-.02a24.6 24.6 0 0 0-6.25 1.96l.15-.07a25.1 25.1 0 0 0-4.46 17.21l-.01-.1c0 .03.02.05.04.07 2.14 1.6 4.63 2.89 7.31 3.73l.18.05h.03a.1.1 0 0 0 .07-.03c.54-.72 1.05-1.54 1.49-2.4l.05-.1a.1.1 0 0 0-.05-.13c-.92-.35-1.7-.72-2.42-1.15l.07.04a.1.1 0 0 1-.05-.08.1.1 0 0 1 .04-.08 12.86 12.86 0 0 0 .53-.38 17.67 17.67 0 0 0 15.22-.04l-.11.04h.04a10.56 10.56 0 0 0 .53.39.1.1 0 0 1 .03.07.1.1 0 0 1-.05.08c-.66.4-1.43.77-2.23 1.08l-.1.03a.1.1 0 0 0-.07.1l.01.04c.5.96 1.01 1.77 1.57 2.54l-.04-.05a.1.1 0 0 0 .1.03c2.87-.89 5.37-2.18 7.57-3.83l-.06.05a.1.1 0 0 0 .04-.07 25.04 25.04 0 0 0-4.49-17.15l.05.08a.08.08 0 0 0-.04-.04z"/></svg>