<svg version="1.0" xmlns="http://www.w3.org/2000/svg" width="400" height="400" viewBox="0 0 300 300"><path d="M38.4 20.9c-4.6.8-12.7 5.6-17.4 10.4a48.5 48.5 0 0 0-6.6 10.3c-3.3 6.6-3.6 7.5-2.9 13 .6 4.8.9 112.7.4 141.9-.1 7.7 0 8.3 4.1 15.3 3.9 6.8 9.2 12.2 11.8 12.2.7 0 1.2.4 1.2 1 0 .5.7 1 1.5 1s1.5.4 1.5.9c0 1.9 6.9 2.5 39 3l33.5.6v22l-18.5.3-18.5.2-3.7 3.7c-3.2 3.2-3.8 4.3-3.8 8s.6 5 3.7 8.4l3.8 4h81.8c53.2-.1 82.4-.4 83.7-1.1 5.2-2.8 8.2-11.5 5.4-15.8-4.5-6.9-5.7-7.2-25.8-7.2H195v-23h33.5a230 230 0 0 0 33.5-1c0-.6 1-1 2.3-1 3.9-.1 15.8-9.1 19.2-14.5l3-5 .3-79c.2-43.5.1-80.8-.3-83.1a39.8 39.8 0 0 0-10.8-17.8c-1.7-1.5-5.4-4-8.2-5.5l-5-2.6-110-.1c-60.5-.1-111.8.1-114.1.5zm221.4 25c1.8 1.1 1.8 152.1-.1 153.3-.9.6-.9.8.1.8 1.4 0 1.6 2.6.3 3.5-.7.4-184.4.8-219.3.5-1 0-1.8-.7-1.8-1.5s-.3-1.5-.7-1.5c-.9 0-.8-152.8 0-153.6.3-.3 49.3-.5 109-.4 73.4 0 108.8-.3 109.2-1 .7-1.2 1.6-1.2 3.3-.1z"/></svg>