<svg xmlns="http://www.w3.org/2000/svg" width="400" height="400" version="1.0" viewBox="0 0 300 300"><path d="M154 15c4 4 6 7 6 11 0 3-1 4-3 6l-6 4-3 1-3 2c-9 3-12 15-6 25 2 3 9 9 11 9 1 0 1-2-1-4-3-3-7-11-7-15 0-3 1-4 4-7l7-4 4-2 4-3c5-4 7-14 2-20l-1-3v-1h-3l-6-1-4-1 4 3zM132 14c-7 1-12 3-15 5l-5 4-5 6c-2 5-3 11-1 11l1 4 3 5 2 2c0 2 10 11 11 11 2 0 1-2-2-6l-4-6-1-1v-1l-1-1c-1 0-3-9-2-13 0-4 9-12 16-14 5-2 13-7 10-7l-8 1zM108 82l-11 2-8 2a95 95 0 0 0-26 9l-6 3-4 2-5 4-10 8-3 5-3 3-1 2-8 16a162 162 0 0 0 18 84l1 2 1 3 3 5 3 4 7 9c6 8 11 12 18 18l5 4 5 3 3 2 5 3 5 2 7 3 8 2h39l8-2 7-3s2-2 5-2l5-3 2-1 6-4 6-5 8-8a332 332 0 0 1 15-14l5 4 6 3 4 2c1 2 22 2 23 0l4-2 9-7c8-9 9-9 10-13l2-4c1 0 3-12 3-19 0-8-1-14-4-18l-2-4c0-1-11-11-14-12l-2-1c0-1-9-3-15-3-4-1-5-1-4-2 2-1 2-20 1-25l-6-15-2-3c-2-4-6-9-13-14l-5-4-5-3-3-2-5-3-5-2-6-3c-4 0-7-2-7-2l-9-2-7-2a199 199 0 0 0-58-2zm44 14 11 2 8 2a66 66 0 0 1 17 5l4 2 4 2 5 2 5 3c5 3 15 13 16 16l1 3 1 1v1c2 1 2 15 0 16v1l-1 1-1 3a55 55 0 0 1-18 17l-4 3-5 2-6 3-7 2-6 2-6 2a224 224 0 0 1-85-2l-6-2-5-2-6-2-5-3c-4-1-8-4-12-7a52 52 0 0 1-11-13c-3-4-4-12-3-18l2-7 4-5c5-7 15-14 22-17l4-2 4-2 7-3 10-2 9-2c5-3 36-4 53-2zm93 93c7 2 11 7 11 16s-5 20-11 22c-5 2-12 1-16-3-3-4-4-5-3-8l1-7 3-11c2-7 2-8 5-9h10z"/><path d="m95 107-4 1c-6 0-17 6-17 9l-2 2-1 8 2 8 2 2 1 1 1 1a173 173 0 0 0 40 38l5 4 3 2c0 2 5 1 7 0l5-3 5-3 4-2 3-2 6-5 12-8 5-4 3-2 2-3c2 0 7-6 7-7l1-1 2-2 2-4 3-12-1-2-2-1c0-3-7-7-13-8l-5-2-10-1-10 1-5 2c-3 1-7 2-9 4l-4 3-4-3c-4-5-12-9-19-10l-6-1h-9zm22 15c6 2 12 6 10 7l3 1c3 0 8-2 9-4 2-3 21-3 24 0l4 3c2 2 2 3 2 6l-2 4-1 2-1 2-1 2-1 1-4 4v1c-1-1-2 1-4 2l-11 9-4 3-2 1-3 3-5 2c-1 0-5-2-10-7l-6-5a88 88 0 0 1-18-19c-1 1-3-4-3-8 0-6 1-8 8-10 6-2 8-2 16 0z"/></svg>